<?xml version="1.0" encoding="utf-8"?>
<!-- Generator: Adobe Illustrator 22.1.0, SVG Export Plug-In . SVG Version: 6.00 Build 0)  -->
<svg version="1.1" id="Layer_1" xmlns="http://www.w3.org/2000/svg" xmlns:xlink="http://www.w3.org/1999/xlink" x="0px" y="0px"
	 viewBox="0 0 592 591" style="enable-background:new 0 0 592 591;" xml:space="preserve">
<style type="text/css">
	.st0{fill:#2471C1;}
</style>
<g>
	<path class="st0" d="M297,18C144.6,18,21,141.6,21,294s123.6,276,276,276s276-123.6,276-276S449.4,18,297,18z M344.1,498.4H232.3
		v-98.7h111.8V498.4z M435.3,248.9c-8.6,14.5-26.2,32.2-52.8,53c-18.5,14.7-30.2,26.4-35,35.3c-4.9,8.9-7.3,20.5-7.3,34.8H235.8
		v-10.4c0-17.8,2-32.2,6-43.3c4-11.1,10-21.2,18-30.4c8-9.2,25.9-25.3,53.7-48.4c14.8-12.1,22.3-23.2,22.3-33.2
		c0-10.1-3-17.9-8.9-23.5c-6-5.6-15-8.4-27.1-8.4c-13,0-23.8,4.3-32.3,12.9c-8.5,8.6-14,23.6-16.3,45.1l-106.6-13.2
		c3.7-39.2,17.9-70.8,42.7-94.7c24.8-23.9,62.9-35.9,114.2-35.9c39.9,0,72.2,8.3,96.7,25c33.3,22.5,50,52.6,50,90.1
		C448.2,219.4,443.9,234.4,435.3,248.9z"/>
</g>
</svg>
