<?xml version="1.0" encoding="UTF-8"?><svg id="a" xmlns="http://www.w3.org/2000/svg" width="717" height="667" viewBox="0 0 717 667"><path d="M345,39c-152.4,0-276,123.6-276,276s123.6,276,276,276,276-123.6,276-276S497.4,39,345,39Zm47.1,480.4h-111.8v-98.7h111.8v98.7Zm91.2-249.5c-8.6,14.5-26.2,32.2-52.8,53-18.5,14.7-30.2,26.4-35,35.3-4.9,8.9-7.3,20.5-7.3,34.8h-104.4v-10.4c0-17.8,2-32.2,6-43.3,4-11.1,10-21.2,18-30.4,8-9.2,25.9-25.3,53.7-48.4,14.8-12.1,22.3-23.2,22.3-33.2s-3-17.9-8.9-23.5c-6-5.6-15-8.4-27.1-8.4-13,0-23.8,4.3-32.3,12.9-8.5,8.6-14,23.6-16.3,45.1l-106.6-13.2c3.7-39.2,17.9-70.8,42.7-94.7,24.8-23.9,62.9-35.9,114.2-35.9,39.9,0,72.2,8.3,96.7,25,33.3,22.5,50,52.6,50,90.1,0,15.7-4.3,30.7-12.9,45.2Z" fill="#efefef"/></svg>