<?xml version="1.0" encoding="utf-8"?><svg id="Layer_1" data-name="Layer 1" xmlns="http://www.w3.org/2000/svg" preserveAspectRatio="xMidYMid meet" width="2040" height="1845" viewBox="0 0 2040 1845"><defs><style>.cls-1{fill:#4890cd;}.cls-2{fill:#8bc9ee;}.cls-3{fill:#fff;}.cls-4{fill:#e5e6e6;}.cls-5{fill:#676868;}.cls-6{fill:#bcbdbf;}.cls-7{fill:#f26722;}.cls-8{fill:#fba91e;}.cls-9{fill:#f4f4f4;}.cls-10{fill:#f06a24;}.cls-11{fill:#47b96d;}.cls-12{fill:#72bf44;}.cls-13{fill:#a0cf6b;}.cls-14{fill:#6fa943;}.cls-15{fill:#343b97;}.cls-16{fill:#4068b2;}.cls-17{fill:#3b9cd7;}.cls-18{fill:#94d0f2;}.cls-19{fill:#d73d27;}.cls-20{fill:#f38170;}.cls-21{fill:#e68524;}.cls-22{fill:#ffe600;}.cls-23{fill:#f4a62b;}.cls-24{fill:#2b6088;}.cls-25{fill:#488fcd;}.cls-26{fill:#88c1db;}.cls-27{fill:#7f351a;}.cls-28{fill:#bd4f27;}.cls-29{fill:#d9e4f4;}.cls-30{fill:#fbe97a;}.cls-31{fill:#d2d2d2;}.cls-32{fill:#9f9f9f;}.cls-33{fill:#bcbcbb;}.cls-34{fill:#f06724;}</style></defs><path class="cls-1" d="M1747.8921,842.6018c-11.2782-285.7754-211.4586-623.4155-455.5294-764.7665-123.8-70.8327-235.5579-79.4521-317.9445-34.7059L696.9714,201.94l145.73,48.2375a514.796,514.796,0,0,0-6.6852,65.6373c-152.2182-60.6782-269.0183,23.58-269.0183,207.4531V530.45c0,202.7162,142.1763,449.598,317.9587,551.04l758.4822,653.0934s222.4769-127.7584,280.1822-160.6913c57.5831-33.3382,93.4347-104.6357,93.4347-206.1385v-7.4129C2017.0559,1176.59,1900.4076,957.7363,1747.8921,842.6018Z"/><polygon class="cls-2" points="385.202 474.396 651.652 325.694 771.228 497.289 639.687 625.337 385.202 474.396"/><path class="cls-3" d="M1469.8336,1001.8472c-11.7665-285.8114-211.4728-623.1167-456.445-764.5756C768.623,96.3416,569.527,202.8567,557.8748,475.4887,405.6113,414.5741,288.7329,499.0072,288.7329,682.53v7.5411c0,202.7006,142.2467,449.1771,317.8616,550.9178L1420.6866,1710.66c175.76,101.556,318.5564,19.1854,318.5564-183.584v-7.3049C1739.243,1336.3716,1621.9828,1116.9441,1469.8336,1001.8472Z"/><polygon class="cls-1" points="1140.077 1317.246 739.165 1105.873 739.165 588.683 1292.699 908.238 1292.699 996.545 1140.077 1317.246"/><polygon class="cls-4" points="50.623 1503.388 754.433 703.428 739.173 694.58 50.623 1092.119 50.623 1503.388"/><polygon class="cls-5" points="50.623 1503.388 65.882 1512.191 189.156 1299.672 65.882 1100.898 50.623 1092.119 50.623 1503.388"/><polygon class="cls-6" points="65.882 1512.191 754.433 1114.659 754.433 703.428 65.882 1100.898 65.882 1512.191"/><path class="cls-7" d="M1220.6439,942.7745,758.9645,676.2487c-8.6116-5.0279-16.4063-5.25-21.93-1.6509h-.0078l-20.7676,12.0355,12.5692,17.5814v358.6c0,19.1338,13.5628,42.5913,30.1366,52.1888l449.3168,259.4431,14.5018,20.2026,19.0118-10.9652h0c5.5475-3.1328,8.9857-9.8712,8.9857-19.514V995.0086C1250.7806,975.8842,1237.1941,952.3641,1220.6439,942.7745Z"/><path class="cls-8" d="M1230.8376,1375.7c0,19.1182-13.6021,26.9426-30.1523,17.353L738.99,1126.518c-16.5737-9.5739-30.1444-33.0471-30.1444-52.2184V705.1849c0-19.1713,13.5707-26.9879,30.1444-17.4672l461.6951,266.5884c16.55,9.588,30.1523,33.0471,30.1523,52.2326Z"/><path class="cls-2" d="M1173.4077,865.2034,768.745,631.55c-5.2424-2.9655-9.9949-3.2487-13.4408-1.2l-10.9276,6.2877,5.4489,8.2829v91.8914c0,11.9885,8.49,26.7751,18.9195,32.7873l404.6627,233.6164c10.4065,6.006,18.918,1.1016,18.918-10.9495V898.03C1192.3257,885.9724,1183.8142,871.1937,1173.4077,865.2034Z"/><path class="cls-9" d="M1181.5827,998.4936c0,12.0261-8.5114,17.0009-18.9492,10.9651L757.9551,775.8033c-10.4065-6.0514-18.9117-20.7754-18.9117-32.8187v-94.259c0-12.0261,8.5052-16.8944,18.9117-10.9041l404.6784,233.5944c10.4378,6.0671,18.9492,20.7832,18.9492,32.825Z"/><path class="cls-7" d="M1191.1348,959.791,729.4616,693.2652c-8.6116-4.9137-16.4047-5.2032-21.9225-1.604h-.0219l-20.7691,12.034,12.5691,17.536v358.608c0,19.1182,13.5629,42.6289,30.1444,52.1731l449.3247,259.4353,14.4877,20.2715,19.026-11.0183h0c5.5474-3.1329,8.9855-9.8713,8.9855-19.5141V1012.011C1221.2855,992.9007,1207.7149,969.4338,1191.1348,959.791Z"/><path class="cls-8" d="M1201.2972,1392.7089c0,19.126-13.5707,26.9958-30.121,17.4062L709.4874,1143.5956c-16.58-9.5818-30.1272-33.116-30.1272-52.24V722.2014c0-19.1244,13.5472-26.9879,30.1272-17.4061l461.6888,266.5805c16.55,9.5286,30.121,33.0471,30.121,52.1794Z"/><polygon class="cls-7" points="917.179 801.668 900.247 751.604 794.525 690.583 785.386 695.818 908.04 806.971 917.179 801.668"/><polygon class="cls-8" points="908.04 806.971 891.079 756.915 785.386 695.818 768.401 726.366 908.04 806.971"/><polygon class="cls-10" points="1236.598 1386.665 1204.857 1405.042 1204.857 1377.296 1240.955 1356.468 1236.598 1386.665"/><path class="cls-11" d="M1159.4083,978.5038l-461.7108-266.51c-8.5959-5.0279-16.389-5.2658-21.9068-1.6666l-.0219-.0532-20.7536,12.0887,12.5614,17.6049v358.5392c0,19.1181,13.5707,42.6289,30.1209,52.2185l449.3481,259.4431,14.4721,20.1572,19.0416-10.9651h0c5.5319-3.1329,9.0012-9.8713,9.0012-19.5219V1030.6848C1189.5605,1011.5588,1175.9288,988.04,1159.4083,978.5038Z"/><path class="cls-12" d="M1169.5706,1411.43c0,19.1322-13.5394,26.9488-30.135,17.3608L677.7468,1162.263c-16.5737-9.5895-30.1209-33.0549-30.1209-52.2419V740.93c0-19.187,13.5472-27.0035,30.1209-17.4672l461.6888,266.579c16.5956,9.5286,30.135,33.0487,30.135,52.1809Z"/><path class="cls-2" d="M1112.1408,900.9405,707.4781,667.2851c-5.2267-3.0249-9.9871-3.255-13.41-1.2519l-10.9417,6.3331,5.4254,8.2829v91.8381c0,12.05,8.5115,26.85,18.9258,32.8328l404.6627,233.64c10.4081,5.9449,18.9508,1.0922,18.9508-10.9573V933.7592C1131.0916,921.7159,1122.5489,906.9231,1112.1408,900.9405Z"/><path class="cls-9" d="M1120.333,1034.223c0,11.9807-8.5427,16.9633-18.9508,10.8962L696.7117,811.5326c-10.4065-6.0513-18.918-20.7753-18.918-32.8186V684.4706c0-12.0417,8.5115-16.9023,18.918-10.9573l404.6705,233.64c10.4081,6.0514,18.9508,20.7754,18.9508,32.8328Z"/><path class="cls-11" d="M1129.8835,995.5141,668.2042,728.9946c-8.6039-4.9591-16.3986-5.1954-21.907-1.59l-.0313-.0689L625.52,739.44l12.5395,17.52v358.608c0,19.1259,13.5785,42.5913,30.1445,52.1731l449.3777,259.4509,14.4252,20.2026L1151.08,1436.43h0c5.5163-3.1407,8.97-9.8791,8.97-19.5141V1047.7545C1160.05,1028.63,1146.4808,1005.171,1129.8835,995.5141Z"/><path class="cls-12" d="M1140.0772,1428.4383c-.0157,19.1259-13.5864,26.9425-30.1678,17.4218L648.2377,1179.3328c-16.5737-9.59-30.1288-33.116-30.1288-52.2483V757.9386c0-19.1322,13.5551-27.0036,30.1288-17.414l461.6717,266.5884c16.5814,9.5348,30.1678,33.0471,30.1678,52.1715Z"/><polygon class="cls-13" points="846.775 842.708 829.819 792.584 724.121 731.57 707.149 762.103 846.775 842.708"/><polygon class="cls-14" points="1175.333 1422.395 1143.622 1440.771 1143.622 1413.034 1179.688 1392.197 1175.333 1422.395"/><path class="cls-15" d="M1097.96,1013.9672,636.2492,747.44c-8.6039-4.9747-16.3986-5.1875-21.9148-1.665h-.0313l-20.7676,12.0574L606.12,775.4058v358.608c0,19.11,13.5551,42.63,30.1289,52.1575L1085.5815,1445.63l14.4565,20.1964,19.026-10.9573h0c5.5771-3.1329,9.0309-9.8807,9.0309-19.5156v-369.16C1128.0949,1047.0675,1114.51,1023.5552,1097.96,1013.9672Z"/><path class="cls-16" d="M1108.1222,1446.8835c0,19.1181-13.5707,26.9426-30.1678,17.4218L616.2827,1197.7092c-16.5816-9.527-30.1523-33.0472-30.1523-52.1716V776.3839c0-19.1323,13.5707-27.0114,30.1523-17.4218L1077.9544,1025.55c16.5971,9.5286,30.1678,33.0471,30.1678,52.1653Z"/><path class="cls-2" d="M1050.6924,936.44,646.0062,702.7938c-5.2111-3.0265-9.9793-3.255-13.4017-1.2456l-10.9574,6.3268,5.4318,8.23v91.8976c0,11.9744,8.513,26.7751,18.9273,32.7654l404.6862,233.64c10.3908,5.99,18.9038,1.0923,18.9038-10.9041V969.2053C1069.5962,957.1636,1061.0832,942.438,1050.6924,936.44Z"/><path class="cls-9" d="M1058.8517,1069.6691c0,12.0495-8.5271,16.9633-18.9336,10.9729L635.2476,846.98c-10.4065-5.9919-18.9351-20.7691-18.9351-32.7576v-94.306c0-11.9807,8.5286-16.8944,18.9351-10.9573L1039.9181,942.607c10.4065,6.0436,18.9336,20.7754,18.9336,32.825Z"/><path class="cls-15" d="M1068.4038,1031.029,606.7619,764.51c-8.6272-5.028-16.42-5.2643-21.9068-1.6651h-.0313l-20.7677,12.05,12.54,17.5893v358.5329c0,19.1322,13.569,42.6367,30.1662,52.2341l449.309,259.4431,14.4721,20.2026,19.0572-10.9495h0c5.5475-3.1407,8.97-9.8806,8.97-19.5234V1083.2554C1098.57,1064.1372,1084.9994,1040.6186,1068.4038,1031.029Z"/><path class="cls-16" d="M1078.6116,1463.9532c-.0611,19.1182-13.5849,26.9426-30.182,17.353L586.75,1214.78c-16.5659-9.59-30.1209-33.0549-30.1209-52.2341V793.4473c0-19.187,13.555-27.0036,30.1209-17.4609L1048.43,1042.5591c16.5971,9.5285,30.182,33.055,30.182,52.2341Z"/><polygon class="cls-17" points="794.456 872.906 777.524 822.842 671.817 761.766 662.649 767.062 785.319 878.162 794.456 872.906"/><polygon class="cls-18" points="785.319 878.162 768.363 828.091 662.649 767.062 645.685 797.557 785.319 878.162"/><polygon class="cls-17" points="1113.869 1457.894 1082.142 1476.217 1082.142 1448.481 1118.192 1427.643 1113.869 1457.894"/><path class="cls-19" d="M1037.4722,1048.8937l-461.6951-266.52c-8.58-4.9591-16.389-5.2564-21.899-1.604l-.0313-.061L533.0792,792.812l12.5692,17.583v358.547c0,19.1181,13.5472,42.5757,30.1287,52.1731l449.37,259.4493,14.45,20.2042,19.0416-10.9573h0c5.5319-3.1329,8.97-9.8728,8.97-19.5845V1101.1357C1067.6088,1082.0019,1054.0538,1058.4833,1037.4722,1048.8937Z"/><path class="cls-20" d="M1047.6346,1481.8179c0,19.1181-13.5551,26.9957-30.1585,17.4062L555.8186,1232.6529c-16.5738-9.59-30.1366-33.0487-30.1366-52.1887V811.2572c0-19.0712,13.5628-26.941,30.1366-17.3514l461.6575,266.51c16.6034,9.59,30.1585,33.116,30.1585,52.242Z"/><path class="cls-3" d="M998.4111,1104.5972c0,11.9964-8.535,16.97-18.9649,10.9714L574.7772,881.9147c-10.4159-5.99-18.9195-20.7691-18.9195-32.8108V754.8511c0-11.9807,8.5036-16.9555,18.9195-10.8947l404.669,233.63c10.43,5.9982,18.9649,20.7315,18.9649,32.7811Z"/><path class="cls-19" d="M1007.9553,1065.9634,546.26,799.3829c-8.5881-4.9732-16.3906-5.1954-21.8912-1.604v-.0532l-20.7848,12.1028,12.5472,17.583v358.5391c0,19.1792,13.5707,42.6446,30.1288,52.2342l449.3544,259.39,14.4877,20.2636,19.0181-10.9573h0c5.5256-3.1407,9.0091-9.9338,9.0091-19.5923V1118.1365C1038.13,1099.0716,1024.5368,1075.5,1007.9553,1065.9634Z"/><path class="cls-20" d="M1018.1333,1498.8188c0,19.1259-13.5629,27.0035-30.1522,17.4077L526.3016,1249.7148c-16.5815-9.59-30.1444-33.0471-30.1444-52.2263V828.3129c0-19.11,13.5629-26.9348,30.1444-17.3452l461.6795,266.5258c16.5893,9.5285,30.1522,33.0393,30.1522,52.2263Z"/><polygon class="cls-19" points="734.008 907.787 717.076 857.776 611.361 796.694 602.208 802.012 724.87 913.097 734.008 907.787"/><polygon class="cls-20" points="724.87 913.097 707.891 863.033 602.208 802.012 585.237 832.493 724.87 913.097"/><polygon class="cls-19" points="1053.442 1492.775 1021.656 1511.152 1021.656 1483.469 1057.738 1462.578 1053.442 1492.775"/><path class="cls-21" d="M976.0159,868.97,514.3209,602.3832c-8.6194-4.9059-16.3985-5.1969-21.8928-1.5977h-.0454l-20.7676,12.0433,12.5692,17.5893V988.9572c0,19.126,13.5472,42.6368,30.1366,52.2264l449.3543,259.443,14.4267,20.21,19.087-11.0183h0c5.524-3.1329,8.948-9.8651,8.948-19.5219V921.1963C1006.1369,902.0172,992.59,878.56,976.0159,868.97Z"/><path class="cls-22" d="M986.1783,1301.8347c0,19.1776-13.5629,26.9958-30.1366,17.4672L494.3388,1052.7136c-16.5815-9.5739-30.1288-33.0472-30.1288-52.1653V631.3273c0-19.126,13.5473-26.9426,30.1288-17.4218L956.0417,880.5c16.5737,9.5285,30.1366,33.0487,30.1366,52.2341Z"/><path class="cls-21" d="M946.499,885.9724,484.81,619.453c-8.6116-4.9748-16.4047-5.1954-21.899-1.59l-.03-.0751-20.7457,12.1185L454.644,647.48v358.5391c0,19.1338,13.6081,42.6368,30.1662,52.181l449.3481,259.4431,14.4643,20.21,19.0415-10.9573h0c5.5319-3.1407,9.0169-9.8869,9.0169-19.53V938.26C976.681,919.0806,963.079,895.6293,946.499,885.9724Z"/><path class="cls-22" d="M956.6756,1318.9045c-.0142,19.1791-13.5692,27.0035-30.1351,17.4139L464.8516,1069.7223c-16.5659-9.5208-30.1428-33.0472-30.1428-52.1575V648.3892c0-19.1244,13.5769-26.9426,30.1428-17.4062L926.5405,897.51c16.5659,9.5959,30.1351,33.0925,30.1351,52.2263Z"/><polygon class="cls-23" points="672.551 727.918 655.588 677.8 549.897 616.771 540.736 622.013 663.383 733.167 672.551 727.918"/><polygon class="cls-22" points="663.383 733.167 646.435 683.103 540.736 622.013 523.749 652.508 663.383 733.167"/><polygon class="cls-23" points="991.978 1312.853 960.206 1331.229 960.206 1303.484 996.295 1282.648 991.978 1312.853"/><path class="cls-7" d="M914.91,1119.68,453.237,853.0849c-8.61-4.9513-16.4047-5.1891-21.9366-1.5977h-.0156l-20.7535,12.0511L423.11,881.1276v358.5391c0,19.187,13.5692,42.6446,30.1272,52.2263l449.3184,259.3821,14.4721,20.2183,19.0713-10.9573h0c5.5319-3.0875,8.9637-9.8729,8.9637-19.5313v-369.099C945.0625,1152.7267,931.4839,1129.2691,914.91,1119.68Z"/><path class="cls-8" d="M925.0961,1552.5442c0,19.1855-13.5551,26.9958-30.1445,17.4062l-461.695-266.5117c-16.5659-9.6052-30.1444-33.116-30.1444-52.25V882.0368c0-19.126,13.5785-26.9958,30.1444-17.4062l461.695,266.579c16.5894,9.5974,30.1445,33.0549,30.1445,52.1887Z"/><path class="cls-2" d="M867.6662,1042.1006l-404.67-233.64c-5.2111-3.0249-9.9792-3.2628-13.4095-1.2535l-10.9354,6.3816,5.4254,8.1593v91.968c0,11.9886,8.5052,26.72,18.92,32.7655l404.6705,233.5928c10.3987,5.99,18.9337,1.1455,18.9337-10.9041V1074.866C886.6,1062.8837,878.0649,1048.0909,867.6662,1042.1006Z"/><path class="cls-9" d="M875.8335,1175.3908c0,11.9808-8.4959,16.9477-18.9195,10.9651L452.2371,952.7083c-10.4143-5.99-18.9508-20.7753-18.9508-32.8265V825.6385c0-12.05,8.5365-16.9555,18.9508-10.9651L856.914,1048.3288c10.4236,5.9825,18.9195,20.7675,18.9195,32.8171Z"/><path class="cls-7" d="M885.3933,1136.68,423.72,870.17c-8.6115-4.9669-16.4047-5.2032-21.8911-1.5978l-.0376-.061-20.7536,12.1044,12.5457,17.5125v358.5548c0,19.1714,13.5707,42.7056,30.1366,52.28l449.356,259.39,14.472,20.21,19.0338-10.9573h0c5.54-3.1407,8.97-9.8791,8.97-19.5219V1188.9224C915.5518,1169.79,901.9968,1146.2778,885.3933,1136.68Z"/><path class="cls-8" d="M895.6011,1569.614c-.03,19.1244-13.5927,27.0035-30.1741,17.4139L403.74,1320.5085c-16.558-9.6585-30.1287-33.1771-30.1287-52.2483V899.0455c0-19.065,13.5707-26.9426,30.1287-17.3452L865.427,1148.2261c16.5814,9.59,30.1741,33.11,30.1741,52.2811Z"/><polygon class="cls-7" points="611.453 978.565 594.506 928.501 488.783 867.48 479.645 872.791 602.307 983.876 611.453 978.565"/><polygon class="cls-8" points="602.307 983.876 585.367 933.812 479.645 872.791 462.675 903.21 602.307 983.876"/><polygon class="cls-10" points="930.872 1563.555 899.131 1581.886 899.131 1554.209 935.197 1533.365 930.872 1563.555"/><path class="cls-15" d="M853.4383,1155.1882,391.7573,888.6c-8.6038-5.02-16.3969-5.2408-21.899-1.5962l-.0156-.0532-20.7755,12.0418,12.577,17.5892v358.5924c0,19.1259,13.5331,42.5835,30.1131,52.1731L841.1054,1586.79l14.4564,20.2026,19.0494-10.9557h0c5.5162-3.1408,8.9856-9.8729,8.9856-19.5235v-369.16C883.5968,1188.2354,870.0261,1164.723,853.4383,1155.1882Z"/><path class="cls-16" d="M863.6163,1588.0514c0,19.1181-13.5707,26.9425-30.1366,17.4061l-461.6872-266.58c-16.5738-9.588-30.1445-33.0471-30.1445-52.2326v-369.1c0-19.1792,13.5707-27.0036,30.1445-17.4062L833.48,1166.71c16.5659,9.5286,30.1366,33.0018,30.1366,52.1732Z"/><path class="cls-2" d="M806.1928,1077.5467,401.5457,843.97c-5.233-3.0265-9.9934-3.2628-13.4471-1.2613l-10.9276,6.3346,5.4333,8.2219V949.17c0,11.9745,8.4957,26.7751,18.9414,32.7655l404.6471,233.6461c10.4159,5.9919,18.9351,1.086,18.9351-10.9714V1110.381C825.1279,1098.3314,816.6087,1083.6059,806.1928,1077.5467Z"/><path class="cls-9" d="M814.3615,1210.89c0,11.9886-8.5193,16.9023-18.9414,10.912L390.7652,988.2092c-10.4238-6.0451-18.9274-20.7691-18.9274-32.8108v-94.306c0-11.9885,8.5036-16.9023,18.9274-10.9041L795.42,1083.8359c10.4221,5.99,18.9414,20.7144,18.9414,32.7577Z"/><path class="cls-15" d="M823.9433,1172.1891,362.2639,905.6164c-8.6194-4.9669-16.4141-5.1954-21.9069-1.604h-.0235l-20.7613,12.0417,12.5394,17.5893v358.5407c0,19.1166,13.5864,42.6978,30.1523,52.2326l449.3324,259.4447,14.494,20.21,19.0118-11.0183h0c5.5538-3.1407,9.0013-9.8729,9.0013-19.5157V1224.37C854.1034,1205.2441,840.5014,1181.7787,823.9433,1172.1891Z"/><path class="cls-16" d="M834.1136,1605.06c-.0157,19.1259-13.5552,27.0035-30.1445,17.4593L342.29,1355.9561c-16.5737-9.5974-30.1209-33.0628-30.1209-52.1887V934.56c0-19.1322,13.5472-26.9488,30.1209-17.414l461.68,266.58c16.5893,9.59,30.1445,33.055,30.1445,52.2342Z"/><polygon class="cls-15" points="549.989 1014.013 533.048 963.949 427.343 902.926 418.188 908.238 540.843 1019.322 549.989 1014.013"/><polygon class="cls-16" points="540.843 1019.322 523.864 969.259 418.188 908.238 401.195 938.725 540.843 1019.322"/><polygon class="cls-24" points="869.416 1599.009 837.636 1617.393 837.636 1589.648 873.725 1568.811 869.416 1599.009"/><path class="cls-11" d="M791.1026,1191.146,329.4153,924.6125c-8.5975-5.02-16.3828-5.1892-21.8928-1.6431l-.0454-.0533-20.73,12.15,12.5238,17.5282v358.547c0,19.1792,13.5629,42.6445,30.1444,52.2341l449.3387,259.39,14.4565,20.2637,19.065-10.9652h0c5.54-3.1485,8.9637-9.9417,8.9637-19.5766V1243.3192C821.2392,1224.201,807.6841,1200.7278,791.1026,1191.146Z"/><path class="cls-12" d="M801.2806,1624.0718c0,19.1166-13.5707,26.941-30.1523,17.3514L309.4411,1374.8974c-16.5581-9.59-30.1366-33.1081-30.1366-52.2263v-369.16c0-19.1259,13.5785-26.9425,30.1366-17.4218l461.6872,266.5868c16.5816,9.59,30.1523,33.11,30.1523,52.1809Z"/><path class="cls-2" d="M743.8352,1113.5671,339.18,879.9805c-5.2345-3.0092-9.9715-3.3-13.4111-1.2519l-10.9495,6.28,5.4489,8.2219v91.96c0,11.9885,8.49,26.7657,18.9117,32.7639l404.655,233.5787c10.3986,6.0671,18.957,1.1455,18.957-10.9041V1146.4C762.7922,1134.3346,754.2338,1119.5653,743.8352,1113.5671Z"/><path class="cls-9" d="M752.01,1246.8652c0,12.0339-8.5114,16.9555-18.9257,10.9025l-404.655-233.5928c-10.4158-5.99-18.9429-20.7691-18.9429-32.8187V897.1128c0-12.0433,8.5271-16.9633,18.9429-10.9041l404.655,233.5788c10.4143,6.0592,18.9257,20.7832,18.9257,32.8171Z"/><path class="cls-11" d="M761.6,1208.2079,299.889,941.6368c-8.5959-4.9747-16.3891-5.197-21.8834-1.6509h-.0313l-20.752,12.0887,12.5238,17.5282v358.608c0,19.11,13.577,42.6367,30.1429,52.1731l449.3716,259.4353,14.4721,20.2714,19.018-11.0261h0c5.54-3.1329,9.017-9.8572,9.017-19.5141V1260.3811C791.7677,1241.2707,778.15,1217.7521,761.6,1208.2079Z"/><path class="cls-12" d="M771.7621,1641.0727c-.0063,19.1322-13.5769,27.0114-30.135,17.4218L279.9383,1391.9672c-16.58-9.59-30.1429-33.1082-30.1429-52.2264V970.573c0-19.11,13.5629-26.9957,30.1429-17.4218l461.6888,266.5962c16.5581,9.5207,30.135,33.0549,30.135,52.1793Z"/><polygon class="cls-11" points="487.63 1050.039 470.69 999.968 364.992 938.947 355.837 944.203 478.499 1055.343 487.63 1050.039"/><polygon class="cls-12" points="478.499 1055.343 461.528 1005.287 355.837 944.203 338.844 974.745 478.499 1055.343"/><polygon class="cls-14" points="807.072 1635.035 775.292 1653.351 775.292 1625.668 811.382 1604.832 807.072 1635.035"/><path class="cls-17" d="M729.6228,1226.5859,267.9418,960.0742c-8.6194-4.9591-16.4125-5.2032-21.9147-1.5961h-.0219L225.2517,970.52l12.5771,17.52v358.6c0,19.126,13.5471,42.5835,30.113,52.1809l449.34,259.4275,14.48,20.2182,19.0416-10.9573h0c5.524-3.1391,8.9778-9.8712,8.9778-19.5218V1278.8263C759.7814,1259.7019,746.2106,1236.2443,729.6228,1226.5859Z"/><path class="cls-18" d="M739.8149,1659.5179c0,19.126-13.5769,27.0036-30.1507,17.414l-461.681-266.5884c-16.5956-9.5348-30.1428-33.0471-30.1428-52.1793V989.01c0-19.1244,13.5472-27.0035,30.1428-17.4061l461.681,266.5805c16.5738,9.5364,30.1507,33.0471,30.1507,52.1794Z"/><path class="cls-2" d="M682.37,1149.0742,277.7224,915.4282c-5.233-3.0187-10.0012-3.2471-13.4174-1.2l-10.9495,6.2815,5.4474,8.214V1020.69c0,11.99,8.5051,26.7219,18.9195,32.7654L682.37,1287.0482c10.4159,5.99,18.9429,1.1392,18.9429-10.9714V1181.84C701.3124,1169.79,692.7854,1155.0662,682.37,1149.0742Z"/><path class="cls-9" d="M690.5538,1282.3645c0,11.9885-8.5051,16.9555-18.9195,10.9651L266.95,1059.69c-10.4081-6.0592-18.9054-20.7831-18.9054-32.8327v-94.245c0-12.0417,8.4973-16.9476,18.9054-10.9572l404.6846,233.64c10.4144,5.99,18.9195,20.7754,18.9195,32.8265Z"/><path class="cls-17" d="M700.12,1243.6713,238.4562,977.1361c-8.6429-4.9591-16.436-5.1876-21.93-1.6494h-.0235L195.7489,987.59l12.5394,17.5126v358.5548c0,19.1714,13.5943,42.6383,30.1679,52.22l449.3387,259.4571,14.4565,20.2027,19.0415-10.9558h0c5.5476-3.1485,8.995-9.8806,8.995-19.5845V1295.8976C730.2879,1276.756,716.7313,1253.253,700.12,1243.6713Z"/><path class="cls-18" d="M710.3058,1676.5876c-.0156,19.126-13.5785,26.9426-30.1444,17.353L218.4585,1427.4148c-16.5581-9.5817-30.0975-33.1019-30.0975-52.1731V1006.0191c0-19.0634,13.5394-27.002,30.0975-17.414l461.7029,266.5962c16.5659,9.59,30.1444,33.1082,30.1444,52.2263Z"/><polygon class="cls-25" points="426.174 1085.54 409.21 1035.422 303.504 974.454 294.365 979.712 417.004 1090.85 426.174 1085.54"/><polygon class="cls-26" points="417.004 1090.85 400.064 1040.733 294.365 979.712 277.386 1010.191 417.004 1090.85"/><polygon class="cls-17" points="745.6 1670.528 713.852 1688.867 713.852 1661.183 749.932 1640.331 745.6 1670.528"/><path class="cls-27" d="M669.1665,1261.5359,207.4933,995.0086c-8.6256-4.9669-16.4125-5.1954-21.9209-1.5962l-.0313-.061-20.7535,12.05,12.5848,17.5814v358.5939c0,19.1245,13.5707,42.6446,30.1209,52.1794l449.3325,259.4431L671.29,1713.47l19.0337-11.0324h0c5.54-3.1329,9.0012-9.8729,9.0012-19.5157v-369.16C699.325,1294.6285,685.7324,1271.1318,669.1665,1261.5359Z"/><path class="cls-28" d="M679.36,1694.4523c0,19.1338-13.5864,26.9425-30.1366,17.414L187.5285,1445.28c-16.5737-9.5286-30.16-33.0487-30.16-52.1653V1023.9527c0-19.1323,13.5864-27.01,30.16-17.414l461.6951,266.5727c16.55,9.5363,30.1366,32.9939,30.1366,52.1809Z"/><path class="cls-2" d="M621.9366,1183.9554,217.2661,950.37c-5.2174-3.0265-10.0012-3.2549-13.433-1.2535l-10.9339,6.3269,5.402,8.2218v91.9133c0,12.0355,8.5286,26.7673,18.9649,32.8187l404.6705,233.5865c10.4081,5.99,18.9039,1.1455,18.9039-10.9041v-94.2981C640.8405,1204.7323,632.3447,1190.0084,621.9366,1183.9554Z"/><path class="cls-9" d="M630.074,1317.2926c0,11.9964-8.5114,16.9086-18.9256,10.9182L206.4777,1094.61c-10.4065-6.0451-18.9195-20.83-18.9195-32.8108V967.5465c0-12.0417,8.513-16.9476,18.92-10.9573l404.6707,233.64c10.4142,5.9982,18.9256,20.73,18.9256,32.7733Z"/><path class="cls-27" d="M639.6559,1278.6056,178,1012.0783c-8.6272-4.9653-16.42-5.2564-21.9225-1.6572h-.0313l-20.752,12.0418,12.538,17.5892v358.5408c0,19.1244,13.5941,42.69,30.1678,52.2341L627.3245,1710.27l14.48,20.21,19.0337-11.0183h0c5.5538-3.1485,8.97-9.8806,8.97-19.5234v-369.16C669.8081,1311.706,656.2531,1288.1874,639.6559,1278.6056Z"/><path class="cls-28" d="M649.8574,1711.522c-.0235,19.0571-13.5864,26.9426-30.1664,17.3608L158.01,1462.3492c-16.558-9.59-30.1131-33.1019-30.1131-52.1809V1041.0161c0-19.1792,13.5551-27.0036,30.1131-17.4609l461.681,266.6415c16.58,9.5208,30.1664,32.9861,30.1664,52.1653Z"/><polygon class="cls-19" points="365.71 1120.482 348.746 1070.35 243.055 1009.398 233.901 1014.638 356.571 1125.792 365.71 1120.482"/><polygon class="cls-20" points="356.571 1125.792 339.592 1075.667 233.901 1014.638 216.931 1045.119 356.571 1125.792"/><polygon class="cls-19" points="685.121 1705.417 653.388 1723.794 653.388 1696.05 689.476 1675.212 685.121 1705.417"/><path class="cls-7" d="M607.7243,1297.0352,146.0292,1030.5095c-8.6036-5.02-16.3984-5.25-21.9068-1.6588h-.0376l-20.7535,12.1185,12.5535,17.5141v358.5392c0,19.1791,13.5629,42.6445,30.1444,52.2341l449.34,259.39,14.4565,20.2715,19.0259-10.9652h0c5.5631-3.1407,8.9935-9.9338,8.9935-19.53V1349.2162C637.8454,1330.098,624.2824,1306.58,607.7243,1297.0352Z"/><path class="cls-22" d="M617.8867,1729.8921c0,19.1855-13.5769,27.002-30.1507,17.414L126.055,1480.7945c-16.5581-9.59-30.135-33.055-30.135-52.2342V1059.4c0-19.1338,13.5769-26.9425,30.135-17.3529l461.681,266.51c16.5738,9.5442,30.1507,33.11,30.1507,52.2341Z"/><path class="cls-29" d="M560.4491,1219.4641,155.7785,985.8635c-5.2173-3.0109-9.948-3.2941-13.3861-1.3067L131.42,990.89l5.4489,8.2218v91.96c0,11.9964,8.4958,26.7736,18.91,32.7718l404.6706,233.5944c10.4,6.0514,18.9273,1.13,18.9273-10.9119v-94.2434C579.3764,1240.24,570.8493,1225.4623,560.4491,1219.4641Z"/><path class="cls-3" d="M568.6256,1352.7466c0,12.05-8.5271,16.9633-18.9351,10.91L145.02,1130.0719c-10.4143-5.9982-18.9179-20.7769-18.9179-32.8343V1003.002c0-12.0511,8.5036-16.9633,18.9179-10.9041l404.6706,233.5788c10.408,6.0592,18.9351,20.791,18.9351,32.8249Z"/><path class="cls-7" d="M578.1918,1314.105,116.5123,1047.526c-8.6115-4.9669-16.3984-5.1891-21.8849-1.6588h-.0219l-20.7849,12.1044L86.36,1075.5v358.5924c0,19.1259,13.5864,42.6445,30.1522,52.1887l449.3466,259.4353,14.4642,20.2026,19.0494-10.9495h0c5.5256-3.1563,8.9793-9.8728,8.9793-19.53V1366.27C608.3518,1347.16,594.7811,1323.6413,578.1918,1314.105Z"/><path class="cls-30" d="M588.3541,1746.9775c0,19.1166-13.555,26.941-30.1366,17.3983L96.5616,1497.8564c-16.5972-9.5975-30.1523-33.1082-30.1523-52.2264V1076.47c0-19.1259,13.5551-27.0114,30.1523-17.4139l461.6559,266.5726c16.5816,9.5349,30.1366,33.055,30.1366,52.1872Z"/><polygon class="cls-23" points="304.26 1155.928 287.304 1105.873 181.605 1044.836 172.437 1050.1 295.121 1161.224 304.26 1155.928"/><polygon class="cls-30" points="295.121 1161.224 278.128 1111.168 172.437 1050.1 155.473 1080.642 295.121 1161.224"/><polygon class="cls-23" points="623.664 1740.918 591.916 1759.302 591.916 1731.557 627.982 1710.721 623.664 1740.918"/><polygon class="cls-4" points="588.913 1814.209 1292.699 1014.196 1292.699 996.545 588.913 1402.924 588.913 1814.209"/><polygon class="cls-5" points="588.913 1814.209 604.172 1823.006 727.437 1610.432 604.172 1411.719 588.913 1402.924 588.913 1814.209"/><polygon class="cls-6" points="604.172 1823.006 1292.699 1425.473 1292.699 1014.196 604.172 1411.719 604.172 1823.006"/><polygon class="cls-31" points="604.172 1823.006 17.056 914.511 50.607 895.157 604.172 1214.78 604.172 1823.006"/><polygon class="cls-32" points="604.172 1823.006 570.611 1842.36 299.332 1374.614 570.611 1234.196 604.172 1214.78 604.172 1823.006"/><polygon class="cls-33" points="570.611 1842.36 17.056 1522.744 17.056 914.511 570.611 1234.196 570.611 1842.36"/><polygon class="cls-34" points="391.704 1412.973 195.995 1300.009 195.995 1198.62 391.704 1311.653 391.704 1412.973"/><polygon class="cls-28" points="409.34 1437.18 373.611 1416.564 373.619 1286.644 409.34 1307.198 409.34 1437.18"/><polygon class="cls-28" points="213.851 1324.551 178.138 1303.943 178.152 1174.023 213.851 1194.684 213.851 1324.551"/></svg>
